<svg xmlns="http://www.w3.org/2000/svg" width="1000.08" height="1000.08" viewBox="0 0 2700 2700">
  <defs>
    <style>
      .cls-1 {
        fill-rule: evenodd;
      }
    </style>
  </defs>
  <path id="Color_Fill_1" data-name="Color Fill 1" class="cls-1" d="M1302,18c22.61-.25,59.19-3.331,79,1,12.08,2.642,25.11-.382,36,2h17c12.57,2.793,29.08,1.336,41,4l20,1c12.56,2.855,27.95,3.153,40,6,24.43,5.772,47.4,4.876,71,11l82,19c58.46,19.044,116.1,34.608,170,58,337.11,146.3,573.98,386.36,718,726,20.59,48.568,35.84,101.944,53,155,8.02,24.8,11.08,51.17,18,76,9.83,35.28,9.69,73.54,18,110,4.8,21.05.35,43.44,5,65,2.17,10.08,1.99,25.09,3,36v20c2.99,14.11,3.07,60.94,0,75-3.27,15,.92,31.71-2,45q-1.005,18.495-2,37c-7.44,33.21-4.7,69.71-13,102q-9,44.49-18,89c-20.71,72.75-39.87,142.2-68,207-154.83,356.7-433,620.6-817,748-50.5,16.75-103.92,26.2-158,40q-41.49,6.495-83,13c-27.04,6.21-57.1,2.06-84,8-14.32,3.16-29.92-.89-43,2h-25c-16.49,0-37.35,2.2-52-1h-22c-25.37-5.62-55.48-1.5-80-7-16.89-3.79-32.49-1.05-49-5-35.76-8.56-73.27-10.12-108-20-39.8-11.32-81.118-20.3-118-34-9.226-3.43-17.906-4.26-27-8-25.339-10.42-51.683-19.01-77-30-13.781-5.98-28.406-14.01-42-20-72.945-32.12-139.9-71.47-202-115-21.321-14.95-41.236-32.73-62-48-22.816-16.78-42.613-36.08-65-53-8.036-6.07-13.983-15.94-22-22a212.693,212.693,0,0,1-40-40c-9.159-12.12-23.794-20.83-33-33-19.933-26.34-44.41-49.36-64-76-67.135-91.28-126.9-188.01-175-299-20.283-46.81-35.416-96.8-52-147-4.6-13.94-5.65-26.75-10-41-12.028-39.39-16.934-83.46-27-126q-4.5-36.99-9-74c-4.594-20.54-.622-43.15-5-63v-29c-2.991-14.11-3.067-60.94,0-75q0.5-22.005,1-44c4.3-19.34,2.83-42.58,7-61q4-36,8-72l16-82c17.763-62.461,31.474-124.276,55-181,36.161-87.19,76.438-167.678,124-243,25.386-40.2,56.192-76.5,84-114,14.565-19.641,31.361-36.625,46-56,6.085-8.054,15.938-13.983,22-22a206.841,206.841,0,0,1,39-39l21-22c22.2-16.8,40.76-38.365,63-55,28.347-21.2,55.964-43.6,85-64,33.25-23.36,69.024-43.65,104-65,10.43-6.367,21.5-9.624,32-16,43.078-26.166,93.5-45.938,142-66,62.1-25.689,129.968-39.757,199-59l89-16,77-9c9.7-2.142,20.3-.093,29-2C1272.4,17.72,1294.62,22.639,1302,18Zm2,100c-3.86,2.272-11.55.173-17,1-11.51,1.745-25.8-.726-38,2-32.08,7.169-66.57,4.123-98,12-32.79,8.218-67.07,10.327-99,20-63.219,19.155-124.888,35.218-182,60C671.769,299.018,496.238,430.127,376,594c-52.469,71.511-102.912,143.548-141,230-10.4,23.6-22.836,48.429-33,73-11.727,28.347-18.969,56.856-29,87-34.542,103.8-54.3,224.84-55,361h1c7.259-9.25,18.568-17.87,28-25,17.225-13.02,31.343-31.66,49-45,12.808-9.68,22.943-23.13,36-33l11-12q58.994-13.995,118-28c8.138-4.54,14.514-15.34,22-21,20.332-15.37,37.656-33.65,58-49,9.443-7.13,20.908-23.93,32-28,3.928,3.59,10,4.41,15,7,15.464,8.01,32.11,14.76,48,23,4.74,2.46,16.575,10.61,21,9,13.084-3.12,37.4-18.91,49-26,5.783-3.53,12.21-4.48,18-8,24.161-14.69,51.506-25.13,76-40,11.434-6.94,23.724-12.35,36-19,2.691-1.46,5.958-5.05,9-6q77.993,7.005,156,14c3.447-1.04,7.83-4.61,11-6,16.7-7.34,33.037-14.97,49-22,35.789-15.77,70.21-30.241,106-46,19.43-8.554,39.78-21.061,60-28l78-10c2.99-1.071,6.46-4.45,9-6,11.77-7.172,24.68-12.1,36-19,28.37-17.286,59.59-27.765,88-45,11.33-6.876,24.18-11.85,36-19,1.85-1.12,4.73-4.373,7-5,5.03-1.387,22.4,3.819,27,5l18,2c17.82,4.539,39.05,6.908,57,11l131-16c15.81,4.668,33.7,12.725,49,19,6.7,2.747,13.75,2.446,20,6l6,7c8.29,8.275,16.84,15.521,24,25q13.995,13.5,28,27c11.75,13.214,23.52,26.5,36,39,17.42,17.448,37.06,34.23,52,54,8.1,10.71,21.49,17.66,29,29,23.87-11.26,46.66-27.5,69-41q30.99-10.5,62-21c4.22,6.17,11.05,10.5,17,15,12.65,9.55,23.11,22.26,36,32,6.78,5.12,11.81,14.44,20,18q52.5,17.505,105,35c4.89,3.06,9.3,8.62,14,12,11.79,8.5,23.16,16.48,35,25,5.58,4.02,9.95,10.48,17,13,5.51-4.74,13.88-5.88,21-9,10-4.38,20.94-10.61,31-15,4.96-2.16,10.37-2.61,14-6,6.91,1.48,12.28,5.51,18,8,16.34,7.12,32.41,14.18,48,21,10.37,4.54,20.31,8.78,30,13,4.8,2.09,9.71,2.19,14,5q27.495,28.5,55,57,53.49,19.005,107,38v-4c-4.34-7.45-1.55-34.24-4-45-7.49-32.82-6.72-67.03-15-99q-9-39.495-18-79c-20.84-63.924-38.46-125.914-64-184-36.4-82.762-82.87-156.39-132-226-131.63-186.484-313.94-325.856-539-419-56.68-23.458-117.23-38.332-180-56l-84-16c-21.08-5.074-43.11-2.143-65-7-11.5-2.551-26.87-1.331-39-4h-17c-10.89-2.371-23.91.628-36-2C1356.69,114.367,1327.32,118.068,1304,118Z"/>
</svg>
