<svg xmlns="http://www.w3.org/2000/svg" width="432" height="640" viewBox="0 0 864 1280">
  <defs>
    <style>
      .cls-1 {
        fill-rule: evenodd;
      }
    </style>
  </defs>
  <path id="Color_Fill_1" data-name="Color Fill 1" class="cls-1" d="M387.2,38.4c46.305-8.444,72.373,5.718,80,12.8s11.792,21.129,16,35.2c5.588,18.685-5.1,33.185,0,48,1.514,4.4,16.4,8.849,9.6,22.4l-9.6,3.2c-6.823,13.709-1.337,30.844-9.6,41.6-12.281,9.881-30.738,3.457-35.2,22.4,10.147,10.1,26.28,24.923,32,38.4,4.923,11.6,10.925,38.026,6.4,54.4-0.45,1.63-6.918,6.22-6.4,9.6,3.985,25.977-3.376,54.888-9.6,80-5.959,24.043-.7,42.385-3.2,60.8-6,44.223-9.84,55.8,0,99.2,5.006,22.08-7.007,43.936,3.2,64,9.179,6.705,19.994,5.072,25.6,16,8.087,14.273-.5,53.006,6.4,73.6,4.008,11.965,15.8,25.264,19.2,35.2,2.81,8.212-3.046,15.11-3.2,19.2-0.821,21.781,15.658,62.205,22.4,80V880c1.768,4.991,11.261,10.964,12.8,16,0.737,2.412-6.989,12.365-3.2,19.2l9.6,3.2c7.551,15.844.407,28.7,6.4,44.8,3.768,10.123,15.144,23.014,19.2,35.2,8.673,26.06,7.291,48.32,19.2,70.4q8,6.4,16,12.8c9.957,21.36-3.073,40.11,16,51.2,30.112,32.47,72.49-2.56,108.8,0,14.9,60.41-44.031,61.1-89.6,80-26.706,11.08-41.8,26.98-80,22.4v-6.4c-10.369-16.77-3.624-43.1-12.8-60.8-7.074-13.65-17-21.18-22.4-41.6-4.046-15.31,6.555-18.78,0-32-5.37-10.83-19.834-20.53-25.6-32-10.532-20.95-9.877-42.09-19.2-64-16.35-38.431-34.2-74.983-51.2-115.2-2.141-5.063-10.408-8.7-12.8-12.8-21.846-37.47-39.364-72.367-57.6-112h-6.4c-3.683,29.764-24.15,39.624-35.2,60.8-19.746,37.843-30.03,80.521-44.8,121.6-6.629,18.436-27.8,26.769-35.2,41.6-8.238,16.5-1.3,31.07-6.4,51.2-6.448,25.46-15.566,54.96-19.2,83.2-1.892,14.7,15.564,19.73,9.6,35.2-4.015,10.41-8.858,1.41-9.6,28.8,10.252,4.97,13.878,13.93,22.4,19.2,19.8,12.25,36.932-.12,38.4,32-2.573,3.27-1.136.88-3.2,6.4-17.217,5.85-47.909,3.45-70.4,3.2-16.773-9.2-56.115,2.94-80-16-2.573-3.27-1.136-.88-3.2-6.4,11.757-17.35,37.313-105.77,32-121.6-1.09-3.25-8.569-7.13-9.6-12.8,1.241-3.16,1.146-13.03,3.2-19.2,1.469-4.41,11.638-12.53,12.8-16,3.92-11.69-4.245-26.35,0-41.6,18.63-66.937,45.617-122.808,70.4-182.4V784c4.337-19.547,8.746-48.413,12.8-64,6.3-24.231-6.917-47.584-3.2-70.4,4.618-28.35,21.226-46.137,25.6-73.6l-19.2-6.4q-4.8-32-9.6-64c-8.657-16.559-23.253-10.183-25.6-38.4,9.659-11.968.068-17.475,3.2-32,1.329-6.163,11.35-15.019,12.8-19.2q-1.6-20.8-3.2-41.6c2.348-9.376,10.424-23.387,12.8-32V304c10.528-36.858,51.5-44.186,67.2-73.6,5.013-9.39.937-17.746,6.4-25.6l16-9.6c6.063-8.849-3.349-7.041,6.4-12.8,2.222-1.459,21.732,1.313,28.8-3.2,2.4-3.433,3.2-4.424,3.2-9.6C334.838,126.833,368.406,39.217,387.2,38.4Z"/>
</svg>
